<?xml version="1.0" encoding="UTF-8"?>
<svg id="Layer_1" data-name="Layer 1" xmlns="http://www.w3.org/2000/svg" version="1.1" viewBox="0 0 601 327">
  <defs>
    <style>
      .cls-1 {
        fill: #fff;
        stroke-width: 0px;
      }
    </style>
  </defs>
  <g>
    <path class="cls-1" d="M157.8,308.2c2.8-6,5.9-11.8,9-17.7,4.2-8,8.3-16,11.6-24.4,2.6-6.4,4.7-12.8,5.7-19.7.7-5,.7-10.1,0-15.1-.4-2.7-.5-5.5-1.1-8.3-1.1-4.8-3.1-9.3-6-13.3-4-5.5-9.5-7.2-16-6.1-3.7.7-7.3,2-10.8,3.2-4.1,1.5-8.2,3.1-12.5,4.2-.8.2-1,.8-1.2,1.4-1.6,5.4-2.9,10.8-3.9,16.4-2.6,14.7-3.1,29.5-2.3,44.4.2,2.7.4,5.4.7,8.2.2,1.6,0,3.2-.4,4.8-1.3,5.6-3.1,11-6,16-2.7,4.8-6.3,8.8-10.9,11.7-.5.3-.9.7-1.2,1.1-1.8,2.7-4.3,4.6-6.9,6.4-.5.3-.9.4-1.4.2-.8-.3-1.7-.5-2.5-.8,0-.6.3-1,.5-1.4,2.5-4.1,3.1-8.5,2.8-13.2-.4-6.7-2-13.2-4.5-19.4-3.2-8.1-5.8-16.5-7.2-25.1-1.6-10-1.8-19.9,0-29.9.9-4.8,2.4-9.3,3.6-14,3.4-13.4,6.3-26.9,8.4-40.6.6-4.1,1.2-8.1,1.5-12.2-.6-.2-.7.3-1,.5-4.8,4.7-10.7,7.2-17.4,8.1-2.9.4-5.8.5-8.6.6-4.2.1-8.4.8-12.6,1.2-.2,0-.4.1-.6.2-.1.6,0,1.1.2,1.6,1.9,7.6,3.5,15.2,4,23,.3,4.3.3,8.6-.8,12.8-.4,1.5-.9,2.9-1.6,4.2-.3.6-.5,1.1-.4,1.7.8,7,.9,14,.5,21-.9,17-5.2,33.2-12.7,48.5-2.8,5.7-3.7,11.8-3.4,18.2.1,2.6.6,5.1,1.3,7.5.3.9,0,1.2-.8,1.4-2.5.9-2.5.9-4-1.4-2.3-3.4-4.6-6.8-6.9-10.2-3.7-5.5-6.3-11.4-7.4-17.9-.3-1.7-.5-3.5-.7-5.2-.6,0-.7.4-.9.6-1.1,1.3-2.1,2.6-3.2,3.9-.8.9-1.6,1.2-2.3.8-.8-.4-1.1-1.3-.7-2.5,1.3-3.6,2.4-7.3,3.4-11,2.1-8,3.4-16.2,4-24.5.5-7,.4-13.9-.1-20.9,0-.7,0-1.3-1-1.3-4.1.3-8.1.7-11.9,2.4-4.6,2-7.7,5.6-9.7,10.1-1.7,3.6-2.2,7.5-2.7,11.5-1.1,8.6-.2,17,1.8,25.3,1.9,8.2,5,15.9,8.5,23.5,1.3,2.9,2.7,5.9,4,8.8-.9.7-1.9,1.5-3.2.9,0-.1,0-.2,0-.3-6.4-9.9-10.3-20.9-13-32.3-.7-2.8-1.4-5.5-1.7-8.3-1-7.6-1.8-15.1-.3-22.7,2.1-10.7,8.2-17.9,18.8-21.1.2,0,.4,0,.6-.3,0-.1,0-.2,0-.3-4.3-5.2-6.7-11.2-8.5-17.6-.6-2.1-1.1-4.2-1.4-6.3-.1-.8-.6-1.4-1-2.1-3.2-4.3-5.8-8.8-7.4-13.9-2.6-8.4-1.8-16.6,1.9-24.5,1.5-3.1,3.3-6,5.4-8.8.6-.9,1.5-1.5,2.3-2.2,6.8-6.6,11.2-14.6,13.6-23.7.9-3.2,1.3-6.5,1.6-9.9.4-5,1.3-9.9,2.5-14.8.3-1.3.3-1.3-.8-1.9-4.4-2.1-8.8-4.2-13.2-6.4-.5-.2-1.1-.4-1.4-.8-.2-.2-.3-.5-.1-.8.2-.3.5-.2.7-.1,1,.5,1.9.9,2.9,1.4,3.7,1.8,7.3,3.5,11,5.3.5.3,1,.7,1.8.6.5-1.9,1.1-3.7,1.9-5.5.4-.9.1-1.3-.6-1.8-4.1-2.8-8.1-5.7-12.2-8.5-3.4-2.4-6.8-4.7-10.1-7.1-.1,0-.3-.2-.4-.3-.5-.3-1-.8-.5-1.4.4-.6.9,0,1.3.3,7.4,5,14.7,10,22.1,15,.4.3.8.7,1.5.8.5-1.4,1.3-2.8,2.2-4,.5-.8.4-1.2-.3-1.8-4.3-3.6-8.5-7.3-12.8-11-.6-.5-1.2-1-1.7-1.6-.3-.3-.5-.6-.5-1,0-.4.3-.6.6-.5.4.2.7.5,1,.8,4.7,4.1,9.4,8.2,14.1,12.3.2.2.4.3.6.5.1,0,.2,0,.3-.1.6-1,1.7-1.9,1.8-2.9,0-1-1.2-1.7-1.9-2.6-6.4-7.4-12.7-14.9-19.1-22.3-.4-.5-.9-.9-1-1.5,0-.3-.1-.6.2-.8.3-.2.5-.1.7,0,.4.4.8.8,1.1,1.2,6.9,7.8,13.7,15.6,20.6,23.5.2.2.3.5.6.9,1.1-1.6,2-3,2.9-4.3.4-.5,0-.8-.3-1.2-2.2-3.2-4.5-6.4-6.7-9.6-.8-1.2-1.7-2.4-2.5-3.5-.2-.3-.4-.5-.6-.8-.2-.5-.5-1,0-1.3.5-.3.8.3,1,.6,2.6,3.7,5.2,7.4,7.7,11.1.8,1.1,1.6,2.3,2.5,3.5,1.8-1.8,3.7-3.4,5.7-4.8.6-.4.3-.8,0-1.3-1.3-2.5-2.5-5.1-3.8-7.6-3.5-6.9-6.9-13.8-10.4-20.7-.3-.5-.6-1.1-.6-1.7,0-.3.2-.6.5-.6.2,0,.5,0,.6.2.3.4.5.8.8,1.3,4.6,9.1,9.3,18.2,13.9,27.3.2.3.4.7.5,1,.2.6.6.6,1,.3,1.3-.9,2.6-1.8,3.9-2.6.8-.5.9-.9.5-1.8-2.2-5.7-4.4-11.5-6.6-17.3-.2-.6-.5-1.1-.4-1.8,0-.2.2-.4.4-.5.3-.1.5,0,.7.3.2.4.4.9.6,1.4,2.1,5.6,4.2,11.1,6.3,16.7.2.5.4.9.6,1.4,1.3-.7,2.5-1.4,3.7-2.1.5-.3.4-.7.3-1.1-1.1-4.8-2.2-9.5-3.3-14.3-1.5-6.3-3-12.7-4.5-19-.1-.5-.4-1.1-.2-1.6.1-.3.2-.7.6-.7.3,0,.5.2.6.5.2.6.4,1.3.6,1.9,2.3,9.3,4.5,18.6,6.8,27.9.4,1.7.9,3.4,1.3,5.3,1.7-.5,3.2-1.2,4.8-1.5.4,0,.6-.3.6-.7,0-.3,0-.7,0-1-.5-5.9-.9-11.8-1.4-17.6-.4-4.7-.8-9.3-1.2-14-.3-3-.5-6.1-.7-9.2,0-.6-.4-1.7.7-1.7.9,0,.7,1,.7,1.6.8,9.6,1.6,19.3,2.4,28.9.3,3.9.6,7.8,1,11.6.1,1.2.1,1.2,1.3.9,1.3-.4,2.5-.8,3.8-1.2.7-.2.9-.5.9-1.1.1-2.4.4-4.9.5-7.3.5-7.3,1-14.7,1.4-22,.4-6.6.9-13.1,1.3-19.7,0,0,0-.1,0-.2,0-.6,0-1.3.8-1.2.8,0,.7.8.7,1.3-.1,4.1-.3,8.2-.4,12.3-.4,12.2-.8,24.4-1.2,36.6,1.1.4,2.2,0,3.2,0,2.3,0,2.3,0,2.7-2.3,2.4-12.7,4.9-25.3,7.3-38,0-.5.2-1,.4-1.4.1-.3.4-.4.7-.4.3,0,.5.3.5.6,0,.4,0,.8,0,1.2-2.5,12.9-5,25.8-7.4,38.6-.1.5-.2,1.1-.3,1.7,2.5.8,5.2.9,7.8,1.8.7.2.7-.4.9-.7.8-2,1.6-4,2.4-6,3.6-9,7.2-18.1,10.8-27.1.2-.5.4-.9.7-1.3.1-.2.4-.4.7-.3.3.1.6.4.5.8,0,.5-.2,1-.4,1.4-4,10.6-8.1,21.2-12.2,31.8,0,.2-.2.4-.2.6q-.6,1.7,1,2.3c.6.2,1.1.4,1.7.7,1.1.4,1.1.4,1.7-.7,3.4-6.1,6.7-12.3,10.1-18.4.3-.6.7-1.3,1.1-1.9.2-.3.5-.5.9-.3.3.2.5.5.4.8-.2.5-.4,1-.7,1.5-3.4,6.2-6.9,12.5-10.3,18.7-.2.3-.4.7-.6,1.1,2,.9,3.9,1.8,5.8,2.8.6.3.8-.1,1.1-.5,1.1-1.6,2.2-3.2,3.3-4.8,5.1-7.5,10.3-14.9,15.4-22.4.3-.4.6-.8.9-1.2.2-.3.6-.3.9-.1.3.2.4.6.2.9-.2.4-.5.9-.8,1.3-5.5,8.2-11,16.4-16.5,24.7-.7,1.1-1.4,2.1-2.1,3.2.3.5.8.6,1.2.9,1.4.9,2.9,1.7,4.3,2.6,2,1.3,2,1.3,3.5-.4,3.8-4.2,7.6-8.5,11.3-12.7.3-.3.6-.7.9-.9.2-.2.5-.2.8,0,.2.2.3.5.2.8-.2.5-.6.9-1,1.3-3.9,4.4-7.8,8.7-11.7,13.1-.3.3-.5.6-.9,1,1.5,1.2,3,2.5,4.4,3.7.4,0,.7-.4,1-.6,7.9-7.2,15.9-14.5,23.8-21.7.3-.3.6-.5.9-.7.3-.2.6-.4.9,0,.3.3.3.7,0,1-.2.3-.4.5-.7.7-6.6,6.3-13.3,12.5-19.9,18.8-1.4,1.3-2.8,2.7-4.4,4.1.9,1,1.8,2,2.7,2.9.5.6.9,0,1.3-.2,2.8-1.9,5.6-3.9,8.3-5.9,2.6-1.9,5.3-3.7,7.9-5.6.5-.3,1-1,1.5-.3.4.7-.3,1.1-.8,1.4-5,3.6-10.1,7.1-15.2,10.7q-1.8,1.3-.5,3c.8,1,1.5,1.9,2.2,2.9.5.7,1,.8,1.8.3,7-3.9,14.1-7.8,21.2-11.7,1.3-.7,2.6-1.5,3.9-2.2.4-.2.8-.4,1.1.1.2.5,0,.9-.4,1.1-.3.2-.6.3-.9.5-7.8,4.5-15.6,9-23.4,13.5-1.1.7-1.1.7-.8,1.9.4,1.7,1.4,3.1,2.1,4.7.3.7.4,1.7,1.1,1.9.7.2,1.4-.4,2.1-.7,4.2-1.7,8.5-3.3,12.7-5,.4-.2.8-.3,1.3-.4.3,0,.6,0,.7.3.1.3,0,.5-.1.8-.3.4-.8.5-1.3.7-4.5,1.8-9,3.5-13.5,5.3-.3.1-.5.2-.8.3-.6.2-.6.5-.4,1,.9,2.3,1.7,4.6,2.5,6.9,1.2,3.2,2.3,6.4,3.1,9.7.3,1.2.8,2.4,1.5,3.5,4.6,7.4,9.4,14.7,14.4,21.9.4.6.8,1.2,1.3,1.7,1.5,1.7,2.7,3.6,3.6,5.6.9,1.9,1.2,4,1,6-.5,4.2-1,8.4-2.1,12.5-3,10.9-7.4,21.2-13.1,30.9-1.6,2.8-3.4,5.5-5.2,8.1-.2.3-.5.6-.5,1.1.8.3,1.5,0,2.2-.3,5-1.8,10.1-2.7,15.4-2,1.5.2,2.9.7,4.2,1.5,8.3,5.2,13.2,12.7,15.3,22.1.7,3.4,1.1,6.8,1.1,10.3,0,4.8,0,9.6-.6,14.3-.6,4.6-1.6,9.1-3.4,13.4-6.5,16-13.9,31.7-22.8,46.5-.3.6-.7,1.1-1.1,1.7-1-.1-1.9-.5-2.7-1.2ZM107.4,314.5c1.5-1.1,2.5-2.4,3.3-3.9,2.5-4.4,3.7-9.3,4.1-14.3.4-5-.3-9.9-1.1-14.8-1.2-6.6-2.2-13.1-2.7-19.8-.7-10.8,1.1-21.2,5.5-31.1.3-.6.5-1.2.9-1.7.4.3.2.6.2.8-.6,3.9-1.3,7.8-2.3,11.6-.9,3.7-1.5,7.4-1.8,11.2-.4,6.5,0,12.9,1.1,19.3.8,5.1,1.7,10.1,2.4,15.2,1,7.6.3,15-2.7,22.1,0,.2-.3.5-.1.8.1,0,.2,0,.3,0,.4-.3.7-.5,1.1-.8,2.6-2.3,4.6-4.9,6.4-7.9,2.3-3.8,3.2-8.1,4.9-12.1.6-1.5.8-3.1,1.2-4.7.1-.6.2-1.1.1-1.6-.7-6.3-1-12.7-1.1-19-.2-10.8.5-21.6,2.2-32.3,1.7-10.7,4.5-21.1,8.4-31.2.9-2.2,1.9-4.2,3.3-6.1,1.7-2.2,3.2-4.4,4.8-6.6.3-.4.4-.9,1-1,.1,1.1.1,1.1-.4,2.1-2.7,5.1-5.1,10.4-7.1,15.8-.2.5-.5,1-.4,1.7,1.9-.7,3.6-1.4,5.4-2.1.8-.3,1.3-.7,1.8-1.4,1.5-2.2,3.2-4.4,4.7-6.7,1.7-2.6,3.5-5.2,4.7-8.1,1.6-4,2.9-8.1,3.7-12.3.6-2.9,1-5.9.7-8.9-.4-3.7-1.8-7-3.6-10.1-1.6-2.9-3.6-5.7-5.4-8.4-5.7-8.4-10.7-17.2-14.3-26.7-.6-1.5-1.2-3-1.5-4.7.7.8,1.1,1.6,1.5,2.4,5.9,10.7,11.8,21.3,18.8,31.3,1.7,2.4,3.2,4.9,4.5,7.6,2,4.1,2.9,8.5,2.5,13.1,0,.5,0,1,0,1.6.4-.4.5-.7.6-1.1,1.2-2.8,2.1-5.7,3-8.7,1.8-5.8,2.4-11.6,1.7-17.6,0-.6-.2-1.1-.5-1.5-2.1-3-4.1-6-6.2-8.9-5.7-7.5-10.7-15.3-14.8-23.7-1.2-2.6-2.4-5.1-3.2-7.9-1.4-4.7-3.3-9.2-5.6-13.5-2.4-4.6-5.3-8.9-8.1-13.2-.8-1.3-1.8-2.5-3.1-3.5-7.2-5.9-15.1-10.5-24.2-13.1-3.1-.9-6.2-1.6-9.4-2.1-4.1-.6-8.2,0-12.3.9-1.1.2-2.3.7-3.4.8-3.4.2-6.7.8-9.8,2.4-4.9,2.5-9.8,5-13.5,9.3-7,8.2-13,17.1-16.5,27.4-.8,2.4-1.9,4.7-2.2,7.1-.7,4.8-1.3,9.6-1.8,14.4-.5,4.7-1.6,9.3-3.6,13.6-3.3,7.4-8.2,13.6-14.1,19-.4.4-.9.8-1.3,1.3-3.8,5.6-6,11.8-6.1,18.6,0,3.4.7,6.7,1.5,10,.8,3.2,2.3,5.9,4.4,8.3.4.5.8.9,1.2,1.4.2.2.4.7.9.5,0-1.3,0-2.6,0-3.8.2-6,1.3-11.8,2.7-17.6,2.3-8.9,6-17.3,9.9-25.6.3-.6.6-1.3,1.3-1.9-.2,1.7-1,3-1.5,4.3-2.4,6.7-4.5,13.5-6.4,20.3-1.9,6.7-3.3,13.5-3.8,20.5-.4,4.8,0,9.5,1,14.3,1.3,6.7,3.9,12.9,8,18.3.6.8,1.2,1.2,2.2,1,1-.2,2-.3,3-.4,1.2-.1,1.2-.1,1-1.3-.4-2.9-.8-5.7-1.4-8.6-.3-1.8,0-3.5.3-5.3,0-.2.1-.6.7-.5,7.1,23.6,7.9,47.2-.9,71.1,1.3-1,1.8-2.2,3.1-2.8.5,1.7,1,3.3,1.5,4.8.3.9.3,1.9.4,2.8.5,5.5,2,10.7,4.7,15.5.7,1.2,1.2,2.5,2.3,3.5,0-.2.1-.3.1-.4,0-.4-.2-.8-.2-1.1-1.3-5.5-1.8-11.1-1.6-16.7.2-7.5,1.5-14.8,2.7-22.2.7-4.6,1.2-9.1,1.4-13.8.1-3.1,0-6.2-.2-9.3-.5-6.3-1.7-12.6-2.2-18.9-.2-1.9-.6-3.9-.4-6.2.3.5.4.7.5.9.4,1.4.9,2.9,1.3,4.3,2.5,9.4,3.8,19,3.6,28.7-.2,7.4-1.4,14.7-2.6,22-.7,4.5-1.3,8.9-1.5,13.4-.1,3.1,0,6.2.2,9.3.5,5.3,1.6,10.4,3.4,15.4.2.5.3,1.2.9,1.6,0-.1,0-.2,0-.4,0-.3,0-.7,0-1-.5-7.2.8-14,4-20.5,3.4-6.9,6.1-14,7.9-21.5,2.5-10.4,4.2-20.9,4.4-31.7,0-3.3,0-6.7,0-10,0-4.5-.4-9-1-13.5-.4-2.5-.8-5.1-1.1-7.6,0-.3-.2-.7.2-.9.4-.2.8,0,1.1.1.4.2.6.6.7,1.1.1.7.3,1.3.4,2,.4,2,.7,4,1.1,6.3.3-1,.4-1.7.4-2.4.1-5.1-.1-10.2-.7-15.3-.6-5.4-1.9-10.7-3.2-16-.2-.8-.5-1.1-1.3-1-3.2.1-6.5,0-9.7-.3-2.6-.2-4.7-1.2-5.5-4-.2-.7-.4-1.4-.6-2.1-.8-3.3-1.8-6.7-3.1-9.9-.6-1.6-1.2-3.2-1.5-4.9-.9-5.1-2.4-10.2-2.7-15.4-.3-4.5,0-8.9,1.2-13.2.7-2.6,1.6-5,2.7-7.4-.6-.7-1.6-.9-1.7-1.8,0-.1.1-.2.2-.2.2,0,.4,0,.7,0,2.1,0,2.3,0,2-2.1-.8-5.8-1.1-11.5,0-17.3.9-4.9,2.8-9.4,6.1-13.1,2.1-2.3,4.4-4.4,7-6.1,1.2-.8,2.4-1.6,3.1-2.9.4-.7,1-1.3,1.6-1.9,4.3-4.2,9.4-7.1,15.1-8.9,2.5-.7,5-1.1,7.6-1,.7,0,1.4.1,2.1.6,2.6,1.9,5.1,4,7.3,6.3,1.7,1.8,3.5,3.6,5.2,5.4,4.1,4.4,8.5,8.5,12.4,13.1.4.5,1,.9,1.2,1.8-1-.3-1.6-.8-2.3-1.3-2.9-2.1-5.6-4.4-8.1-7-.4-.4-.7-.9-1.4-.8-1.2.1-2.5.2-3.8.3.1.2.1.4.2.4,3.5,4,5.8,8.7,7.4,13.7,1.2,3.5,1.8,7.1,2.8,10.6,2.3,8.4,2.4,16.9,1.8,25.5,0,.9-.3,1.8,0,2.7,1.9,8.2,5,15.9,9.8,22.9,5.7,8.3,13.2,14.5,22.1,19.1.5.3,1.1.6,1.6.9.5.4.7,1,.3,1.7-.3.6-.9.9-1.5.8-.6,0-1.1-.4-1.7-.7-12.6-6.5-22.1-16-28.3-28.8-.1-.3-.1-.8-.7-.7-.5,9.1-1.4,18.2-2.8,27.2-2.2,14.7-5.4,29.2-9.1,43.6-1.3,5-3,10-3.3,15.3-.5,8.3-.5,16.5.6,24.6,1.1,8.5,3.4,16.6,6.5,24.6,1,2.5,1.9,5.1,2.6,7.7,1.6,5.9,2.7,11.8,2.2,18,0,1-.2,2.1-.4,3.3ZM45.8,119.7c-.8.2-.9.7-1.1,1.1-1.4,3.4-2.6,6.9-3.1,10.5-.9,7.4-.1,14.7,1.8,21.8,1.6,6,4.1,11.7,5.4,17.9.3,1.6,1.3,2.3,2.8,2.6,1.9.4,3.7.6,5.6.6,4.3,0,8.5-.5,12.8-1.1,5.9-.8,11.9-1.8,17.9-2,3.4-.1,6.7-.9,9.7-2.6,3.7-2.1,6.7-4.9,9.4-8.2.4-.4.4-.9.4-1.4.4-4,.5-8,.8-12,.2-2.8.1-5.5-.9-8.2-.3-.7-.4-1.4-.6-2.1-.7-2.9-1.1-5.7-1.1-8.7.2-7.1-.2-14.2-1.3-21.3-.2-1.2-.7-1.9-1.7-2.4-7.6-4.1-15.6-4.8-24-2.9-1.1.3-2.3.6-3.4.8-.7.2-1.4,0-1.7-.7-.3-.7.2-1.3,1.1-1.6.7-.3,1.5-.4,2.2-.6,8.8-2.2,17.4-1.8,25.7,2.3.2,0,.4.3.6,0-.6-2.7-1.5-5.4-2.5-8-1.1-2.7-2.5-5.1-4.4-7.2-1.9-2.1-4-4-6.4-5.7,1.8-.6,3.4-.5,5-.5,1.6,0,3.1,0,5-.2-.8-.9-1.4-1.4-1.9-2.1-.5-.6-1-.8-1.9-.6-3.5.7-7.1,1.2-10.7,1.9-2.6.4-5.1.9-7.8,1.4.5.4.9.8,1.2,1.1,3.1,3,3.7,7.6,1.5,11.3-4,6.7-14.4,6.6-18.3-.2-2.8-5-.2-11.7,5.2-13.2q0,1.3-.9,2.1c-3.1,3-2.4,7.7,1.3,9.7,1.6.9,3.4,1.1,5.2.7,4.7-1.2,6.5-6.1,4-9.4-.7-.9-.2-1.8-.3-2.7,0-.7,1-.8,1.5-1,.4-.2.7-.2,1.1-.4,3.4-1,6.9-1.6,10.4-2.3,1.8-.3,3.6-.6,5.7-1-1.3-1.4-2.4-2.5-3.4-3.7-.7-.9-1.4-1.1-2.5-.7-.8.3-1.6.3-2.5.4-6.1.9-11.9,2.8-17.1,6.3-.4.2-.7.5-1.1.7-.3.2-.7.4-1,0-.3-.3,0-.6.2-.9.2-.3.5-.6.8-.9,1.2-1.2,2.6-2.1,4-2.9,4-2.3,8.3-3.6,12.9-4.3,1.1-.2,2.2-.3,3.5-.5-.7-.8-1.4-1.4-2.1-1.9-.4-.2-.8-.6-1.2-.5-1.7.3-3.3,0-5,.4-6.8,1.3-12.5,4.5-17.5,9.1-.5.5-1,1-1.4,1.6-.4.6-.9,1.1-.7,1.9.1.5-.3.8-.7.9-.9.4-1.8.6-2.6,1.2-1.6,1.2-3.2,2.4-4.7,3.7-3.1,2.7-4.8,6.3-5.9,10.2.2,0,.2.1.3.1.2,0,.3,0,.5,0,4.9-.6,9.1,1.1,12.9,3.9.3.2.6.5.9.8.3.4.4.9,0,1.4-.3.4-.8.6-1.3.3-.3-.2-.7-.4-1-.6-1.1-.8-2.3-1.5-3.6-2.1-2.6-1.3-5.3-1.6-8.1-1.3-.8,0-1.3.4-1.4,1.3-.4,3-.6,6-.3,9,.2,2.8.5,5.5.7,8.3,0,.5.2.6.5.7,3.2.8,6.4,1.2,9.7.6,1.6-.3,2.6-.9,3.2-2.5.4-1,.7-2.1,1.7-3.1.3,2.1,0,3.9-.9,5.6-1.8,3.4-3.7,6.7-6.1,9.7-.7.8-.8,1.8-.4,2.8.3.7.5,1.5.8,2.2.1.4.2.9-.4,1.1-.5.2-.8-.2-1-.6-1.8-3.3-1.7-4.8.5-7.8.6-.8,1.2-1.6,1.7-2.4.3-.4.7-.8.7-1.5-.6-.2-1.2.2-1.8.3-.6,0-1.2,0-1.7-.4,0,0-.3,0-.5.1-2.2.7-4.3.3-6.4-.2-.7-.2-1.1-.5-.7-1.4ZM79.2,84.4c.3,4.9-2.4,8.3-6.8,8.8-2.2.2-4.2-.2-6-1.5-2.2-1.6-3-3.8-3.1-6.6-1.9,3.4-.3,7.5,2.3,9.5,3.5,2.6,8.6,2.4,11.9-.4,2.7-2.4,3.7-6.6,1.7-9.8Z"/>
    <path class="cls-1" d="M62.1,154.6c-2.7,0-5.1-.5-7.5-1.1-3.3-.8-5.1-3.2-5.9-6.4-.3-1.1-.2-2.3-.6-3.4-.2-.5.2-.7.6-.9,2-.9,4.1-1.8,6.1-2.7,1-.4,2.1-.3,3.1,0,.5.2.9.3,1.4.1,1.7-.5,3.4-.3,5.1.3,1.1.4,2.2.8,3.2,1.4,2.6,1.8,5.7,2.5,8.7,3.1.7.1,1.3.2,2,.4.6.2.7.7.2,1.1-3,2.5-6.1,4.9-9.6,6.6-2.1,1.1-4.5,1.3-6.7,1.2ZM49.7,144.6c0,4.6,2.5,7.4,6.6,8,.8.1,1.5.3,2.3.4,4.3.6,8.4.5,12.1-2.2,1.4-1,2.9-2,4.4-3,.3-.2.8-.4.8-1-.4,0-.7,0-1,.1-2.3.5-4.7.9-7.1,1.1-5.2.5-10.3,0-15.3-1.5-1-.3-2-.7-2.8-1.9ZM49.5,143.7c.7.2,1.2,0,1.7,0,1-.2,2-.6,2.9-.5,2.4.3,4.8.5,7.2.8,1.4.2,2.8.7,4.2,1,2.8.6,5.6,1.2,8.5,1-2.4-.6-4.7-1.3-6.7-2.7-.9-.6-1.9-1-2.8-1.4-1.7-.6-3.5-1-5.3-.3-.5.2-1,0-1.4-.2-.8-.4-1.6-.6-2.4-.3-1.9.7-3.8,1.6-5.9,2.5ZM50.6,144.5c0,.4.2.6.4.7,1.1.7,2.4,1,3.6,1.3,5.4,1.3,10.8,1.4,16.2.7.3,0,.6,0,.6-.4,0,0-.1-.1-.2-.2-3.3-.4-6.5-1.1-9.6-2-.7-.2-1.6-.4-2.3-.3-1.1.1-2.2-.1-3.3-.3-1.8-.4-3.6-.1-5.5.5Z"/>
    <path class="cls-1" d="M104.6,120c-1.2,1.1-2.7,1.5-4.1,1.8-.8.2-1.6.2-2.5.4-.3,0-.6,0-.4.4.3.6-.2.7-.5.7-3.6.5-7.2.9-10.7,0-.5-.1-1.1-.5-1.6.1,0,0-.3,0-.5,0-3.7-.3-7.2-1.2-10-4-.4-.4-1.2-.9-.7-1.7.5-.8,1.2,0,1.7.2,4.1,1.7,8.4,2,12.7,2,3.6,0,7.1-.4,10.6-.9.3,0,.7-.3,1,0,1.4,1,3.1.7,4.7.8,0,0,0,0,.3.2Z"/>
    <path class="cls-1" d="M65.4,133.1c-1.1,0-1.8-.4-2.5-.7-.9-.4-1.7-.7-2.7-.1-.3.2-.6.3-.9,0-.3-.4,0-.7.2-1,.7-.8,2.1-1,3.2-.5.9.4,1.7,1.1,2.7,2.5Z"/>
  </g>
  <g>
    <path class="cls-1" d="M481.3,279.6c-8.7,0-16.5-1.6-23.7-5.7-.3-.2-.7-.4-1-.6-.6-.3-.7-.7-.6-1.3,1.1-4,2.1-8.1,3.1-12.1,0-.1,0-.2.1-.3,0-.2.2-.4.4-.4.3,0,.4.2.4.4,0,.5.2,1,.3,1.5.4,2.1,1.1,4.2,2,6.2,3.6,7.4,9.5,11.3,17.7,11.6,3.8.1,7.6-.4,11.1-1.9,4.2-1.8,7.2-4.8,8.1-9.5.9-4.6-.3-8.4-4.2-11.2-2.8-2.1-6-3.3-9.3-4.4-4.5-1.5-9.2-2.7-13.6-4.4-3.1-1.1-6.1-2.5-8.8-4.4-3.2-2.3-5.6-5.1-6.5-9-1.6-6.7.3-13.2,6.8-17.4,3.3-2.1,7-3.3,10.9-4,10.3-1.7,20.3-.5,29.8,4,.3.1.5.3.8.3.7.2.9.7.6,1.4-1.2,3.9-2.3,7.9-3.4,11.8,0,.2-.2.4-.2.6,0,.2-.2.2-.4.2-.3,0-.4-.1-.5-.4,0-.4,0-.8-.1-1.2-.7-7.7-6-14.2-13.5-16.1-5.5-1.4-10.9-.7-15.8,2.2-4.2,2.4-6.4,6-6.5,10.9,0,2.8,1,5.1,3.1,6.9,1.7,1.5,3.7,2.4,5.8,3.3,4.2,1.7,8.6,2.7,12.9,3.9,3.3.9,6.6,1.9,9.8,3.3,1.7.7,3.3,1.6,4.8,2.7,5.7,3.9,7.7,9.4,6.9,16.1-.7,6.3-4.2,10.6-9.8,13.3-3.5,1.7-7.2,2.5-11.1,3-2.3.3-4.7.5-6.5.4Z"/>
    <path class="cls-1" d="M568.5,279.6c-8.7,0-16.5-1.6-23.7-5.7-.3-.2-.7-.4-1-.6-.6-.3-.7-.7-.6-1.3,1.1-4,2.1-8.1,3.1-12.1,0-.1,0-.2.1-.3,0-.2.2-.4.4-.4.3,0,.4.2.4.4,0,.5.2,1,.3,1.5.4,2.1,1.1,4.2,2,6.2,3.6,7.4,9.5,11.3,17.7,11.6,3.8.1,7.6-.4,11.1-1.9,4.2-1.8,7.2-4.8,8.1-9.5.9-4.6-.4-8.4-4.2-11.2-2.8-2.1-6-3.3-9.3-4.4-4.5-1.5-9.2-2.7-13.6-4.4-3.1-1.1-6.1-2.4-8.8-4.4-3.1-2.2-5.4-5.1-6.4-8.9-1.8-6.9.7-13.5,6.7-17.4,3.4-2.2,7.1-3.4,11-4,10.3-1.7,20.3-.5,29.8,4,.3.1.5.3.8.3.7.2.9.7.6,1.4-1.2,3.9-2.3,7.9-3.4,11.8,0,.2-.2.4-.2.6,0,.2-.2.2-.4.2-.2,0-.4-.2-.5-.4,0-.4,0-.8-.1-1.2-.7-7.7-6-14.2-13.5-16-5.5-1.4-10.9-.7-15.8,2.2-4.2,2.4-6.5,6.1-6.5,11.1,0,2.7,1,4.9,3,6.6,1.7,1.5,3.7,2.5,5.7,3.3,4.2,1.7,8.7,2.7,13.1,4,3.3.9,6.6,1.9,9.8,3.3,1.6.7,3.2,1.6,4.7,2.6,5.8,4,7.9,9.5,7,16.4-.8,6.2-4.2,10.5-9.8,13.2-3.5,1.7-7.2,2.5-11.1,3-2.3.3-4.7.5-6.5.4Z"/>
    <path class="cls-1" d="M257.8,242.1c3.8,0,7.6-.2,11.3-.4.3,0,.7,0,1,0,.2,0,.2.2.2.4,0,.2,0,.3-.2.4-.4,0-.8,0-1.2,0-2.8.4-4.1,1.7-4.6,4.5-.2,1.4-.3,2.8-.3,4.2,0,6,0,12,0,18,0,1.4,0,1.4-1.4,1.7-3.3.7-6.4,1.9-9.3,3.5-1.4.7-2.7,1.5-4.1,2.3-3.6,2-7.4,3.1-11.5,3.1-7.3.1-14.1-1.6-20.2-5.7-7.6-5.2-12-12.5-13.7-21.5-1.2-6.6-.9-13.1,1.4-19.4,4.1-11.4,12.4-18.3,24.2-20.6,10.6-2.1,20.7-.3,29.9,5.5,1.7,1.1,1.7,1.1,1.2,3-.8,2.9-1.5,5.8-2.3,8.7,0,.3-.1.5-.2.8,0,.3-.1.6-.5.5-.3,0-.5-.2-.6-.5-.1-.4-.2-.9-.4-1.3-1-3.1-2.2-6.1-4-8.8-2.6-3.9-6.1-6.7-10.8-7.4-7.4-1.2-13.9.5-19.2,6-.5.5-.8,1.1-1,1.9-1,4.3.2,8.2,2.8,11.6,2.9,3.8,6.8,6.2,11.2,7.7,2.1.7,4.2,1.1,6.4,1.3,5.3.4,10.5.7,15.8.7ZM220.1,222c-.2.3-.4.6-.6.9-1.4,2.1-2.5,4.4-3.2,6.8-2.6,8-3.2,16.2-1.9,24.6.9,5.4,2.6,10.4,5.8,14.9,3.8,5.4,8.9,8.8,15.5,9.6,4.9.6,9.4-.6,13.1-4,3.4-3.2,5-7.2,5.1-11.8,0-3.9,0-7.8,0-11.7,0-3.4-1.4-5.6-4.5-6.9-.9-.3-1.8-.7-2.7-.9-2.1-.6-4.3-1.1-6.5-1.4-5.2-.7-9.7-2.7-13.7-6-3.4-2.9-5.7-6.5-6.2-11.1-.1-1,0-1.9-.3-3Z"/>
    <path class="cls-1" d="M436.5,230c.3,1.2.4,20.6,0,22.5-.5,0-.5-.5-.7-.8-.4-.7-.8-1.5-1.2-2.2-2.3-4.4-6-6.6-10.7-7.3-3.5-.5-7.1-.6-10.7-.6-.8,0-1.1.2-1.1,1,0,1.4,0,2.8,0,4.2,0,9.9,0,19.8,0,29.7,0,.3,0,.7,0,1,0,1.2,0,1.2,1.2,1.2,3.9,0,7.8,0,11.7-.1,2.8,0,5.7-.5,8.4-1.2,5.1-1.2,9.5-3.8,13.1-7.5,1.6-1.6,3-3.4,4.4-5.3.2-.3.4-.8,1-.8.3.6,0,1.2,0,1.7-.7,4.3-1.5,8.5-2.2,12.8-.2,1.5-.4,1.3-1.6,1.3-1,0-2,0-3,0-15.9,0-31.7,0-47.6,0-.4,0-.9,0-1.3,0-.3,0-.4-.1-.4-.4,0-.2.2-.4.4-.4.5,0,1-.1,1.5-.2,2-.3,3.2-1.5,3.7-3.4.2-.8.4-1.6.4-2.5,0-1.1.1-2.2.1-3.3,0-16.2,0-32.4,0-48.6,0-1.4,0-2.8-.3-4.2-.5-2.4-1.5-3.3-3.9-3.7-.2,0-.5,0-.7,0-.2,0-.3-.3-.3-.5,0-.2.2-.3.3-.3.4,0,.8,0,1.2,0,16.5,0,33.1,0,49.6,0,1.4,0,1.5-.3,1.8,1.5.7,3.9,1.5,7.9,2.2,11.8,0,.5.6,1.4,0,1.6-.7.3-.9-.7-1.2-1.1-1.3-1.7-2.6-3.3-4.1-4.8-4.3-4.5-9.6-6.9-15.7-7.6-5.9-.7-11.8-.3-17.7-.4-.6,0-1,.2-.9.8,0,.3,0,.6,0,.8,0,8.2,0,16.4,0,24.5,0,1.8-.2,1.6,1.6,1.6,3.7,0,7.5,0,11.1-.7,1.1-.2,2.2-.5,3.2-.8,3.7-1.2,6-3.9,7.4-7.4.2-.7.3-1.4.9-2Z"/>
    <path class="cls-1" d="M329.7,212.2c.9,4.7,1.8,9.4,2.6,14,0,.3.2.7-.2.9-.4.2-.6-.2-.8-.4-1.2-1.6-2.4-3.1-3.7-4.5-4.6-5.3-10.5-8-17.5-8.7-5.6-.5-11.2-.2-16.8-.3-.9,0-1,.4-1,1.1,0,3,0,6,0,9,0,5.5,0,10.9,0,16.4,0,1.4,0,1.3,1.3,1.3,4.3,0,8.6,0,12.8-.9,4.8-1,7.9-3.8,9.5-8.4.2-.5.4-1,.6-1.6.2.3,0,0,.2.2,0,0,.1,0,.1,0,0,7.2,0,14.5,0,21.7,0,.2,0,.5-.2.5-.4,0-.4-.3-.6-.5-.4-.8-.8-1.6-1.2-2.4-2.3-4.5-6.1-6.7-11-7.4-3.4-.5-6.8-.5-10.2-.5-1.4,0-1.4,0-1.4,1.5,0,9.7,0,19.4,0,29.1s0,3.6,0,5.3c0,.8.2,1.2,1.1,1.2,5.1-.1,10.2.1,15.3-.4,8.3-.9,15.1-4.4,20.3-10.9.8-1,1.6-2,2.3-3.1.2-.3.3-.7.7-.5.5.2.2.6.2.9-.5,2.7-.9,5.4-1.4,8.1-.3,1.8-.6,3.5-.9,5.3-.3,1.6-.3,1.6-1.8,1.6-2.6,0-5.1,0-7.7,0-14.1,0-28.3,0-42.4,0s-.7,0-1,0c-.4,0-1.1.3-1.1-.4,0-.6.7-.4,1-.5,3.3-.6,4.5-1.8,4.9-5.1.2-1.2.2-2.4.2-3.7,0-16.5,0-33.1,0-49.6,0-1.2,0-2.4-.3-3.7-.4-2.3-1.5-3.4-3.9-3.7-.2,0-.3,0-.5,0-.3,0-.6-.1-.6-.5,0-.4.3-.4.6-.4.2,0,.4,0,.7,0,16.9,0,33.7,0,50.6,0,.2,0,.4,0,.8,0Z"/>
    <path class="cls-1" d="M338.6,212.1c3.8,0,7.4,0,10.9,0,.8,0,1,.5,1.3,1.1,3.8,6.8,7.6,13.6,11.3,20.4,6.5,11.7,13,23.4,19.4,35.2.3.6.7,1.1,1.2,2.1,0-.8,0-1.2,0-1.6,0-16,0-32.1,0-48.1,0-1.4,0-2.9-.3-4.3-.5-2.3-1.7-3.4-4.1-3.7-.5,0-1,0-1.5-.2-.2,0-.4-.2-.4-.5,0-.3.3-.3.5-.3.4,0,.9,0,1.3,0,3.3.2,6.7.2,10,0,.4,0,.8,0,1.2,0,.2,0,.3,0,.3.3,0,.3-.1.5-.3.5-.4,0-.9,0-1.3.1-2.8.3-3.8,1.2-4.3,4-.2,1.3-.2,2.7-.2,4,0,14.6,0,29.2,0,43.7,0,2.3,0,4.6,0,6.8,0,.8.2,1.5.6,2.2,1.1,1.8,2,3.7,3.2,5.7-.6,0-1,0-1.4,0-2.9,0-5.8,0-8.7,0-1.2,0-1.7-.4-2.3-1.4-7.5-13.5-14.9-27.1-22.4-40.6-2.9-5.2-5.8-10.4-8.7-15.6-.2-.3-.3-.7-.7-.9-.5.2-.3.7-.3,1,0,16.3,0,32.6,0,48.9,0,1.3,0,2.7.3,4,.3,2.2,1.4,3.2,3.6,3.6.5,0,1,.1,1.5.2.3,0,.9-.1.8.5,0,.5-.6.2-1,.3,0,0-.1,0-.2,0-3.7-.2-7.3-.1-11,0-.4,0-1,.3-1.1-.3,0-.7.6-.4,1-.5.3,0,.5,0,.8-.1,2.6-.4,3.8-1.6,4.1-4.3.2-1.4.2-2.9.2-4.3,0-9.3,0-18.6,0-27.9,0-7.2,0-14.4,0-21.5,0-1.2-.2-2.2-.8-3.2-1-1.7-1.9-3.4-3-5.4Z"/>
    <path class="cls-1" d="M525.7,279.3c-3.1,0-6.3.1-9.6.3-.3,0-.7,0-1,0-.3,0-.6,0-.6-.4,0-.4.3-.4.6-.4.6,0,1.1-.1,1.7-.2,2.1-.4,3.3-1.5,3.6-3.6.2-1.1.3-2.2.3-3.3,0-17.3,0-34.6,0-51.9,0-1.1-.1-2.1-.3-3.1-.4-2.2-1.6-3.2-3.8-3.6-.3,0-.6,0-.8-.1-.1,0-.3-.2-.3-.4,0-.3.1-.4.4-.4.3,0,.6,0,.8,0,6,.5,12,.5,18,0,.4,0,1.2-.4,1.3.2.1.9-.8.5-1.2.6-2.1.4-3.2,1.4-3.6,3.6-.2,1.1-.3,2.2-.3,3.3,0,17,0,33.9,0,50.9,0,1.3.1,2.7.4,4,.5,2.2,1.8,3.5,4.1,3.8.6,0,1.8-.1,1.7.5-.1.9-1.2.4-1.8.3-3.2-.1-6.3-.3-9.6-.2Z"/>
    <path class="cls-1" d="M309.4,194.9c0,.4-.2.6-.3.8-3.5,4.6-6.9,9.1-10.3,13.7-.5.6-.9.9-1.7.6,0-.5.3-.8.5-1.1,2.9-4.5,5.8-8.9,8.8-13.3q1-1.5,2.7-.8c.1,0,.3.2.4.2Z"/>
  </g>
  <path class="cls-1" d="M224.3,297.5l-.7.6c-.4-.5-.9-.9-1.5-1.2-.6-.3-1.2-.4-1.9-.4s-1.4.2-2.1.5-1.1.8-1.5,1.4-.5,1.3-.5,2c0,1.1.4,2,1.2,2.8s1.8,1.1,3,1.1,2.4-.5,3.3-1.5l.7.5c-.5.6-1,1-1.7,1.3-.7.3-1.5.5-2.3.5-1.6,0-2.9-.5-3.9-1.6-.8-.9-1.2-2-1.2-3.2s.5-2.5,1.4-3.4c1-.9,2.2-1.4,3.6-1.4s1.7.2,2.4.5c.7.3,1.3.8,1.7,1.4ZM227.3,295.8h5.4v.9h-4.4v2.9h4.4v.9h-4.4v3.6h4.4v.9h-5.3v-9.1ZM235.3,304.9v-9.1h.2l6.2,7v-7h.9v9.1h-.2l-6.2-6.9v6.9h-1ZM245.1,296.7v-.9h5.1v.9h-2.1v8.2h-1v-8.2h-2.1ZM252.7,295.8h1.9c1,0,1.7,0,2.1.1.6.1,1,.4,1.4.8.3.4.5.9.5,1.5s-.1.9-.4,1.3c-.2.4-.6.7-1,.9-.4.2-1.1.3-1.8.3l3.4,4.2h-1.2l-3.4-4.2h-.5v4.2h-.9v-9.1ZM253.6,296.7v3.1h1.6c.6,0,1.1,0,1.4-.2.3-.1.5-.3.7-.6s.3-.5.3-.9,0-.6-.3-.8-.4-.4-.7-.5c-.3-.1-.7-.2-1.4-.2h-1.6ZM266.1,295.6c1.4,0,2.6.5,3.6,1.4,1,.9,1.4,2.1,1.4,3.4s-.5,2.5-1.4,3.4c-1,.9-2.1,1.4-3.5,1.4s-2.6-.5-3.5-1.4c-1-.9-1.4-2-1.4-3.4s.2-1.7.7-2.4,1-1.3,1.8-1.8c.8-.4,1.6-.6,2.4-.6ZM266.1,296.5c-.7,0-1.3.2-2,.5-.6.4-1.1.8-1.5,1.4-.3.6-.5,1.3-.5,2,0,1.1.4,2,1.2,2.7.8.7,1.7,1.1,2.8,1.1s1.4-.2,2-.5,1.1-.8,1.4-1.4c.3-.6.5-1.3.5-2s-.2-1.4-.5-2-.8-1.1-1.5-1.4c-.6-.4-1.3-.5-2-.5ZM278.7,304.9v-9.1h1.9c1.4,0,2.4.1,3,.3.9.3,1.6.8,2.1,1.6.5.8.8,1.7.8,2.7s-.2,1.7-.6,2.4c-.4.7-.9,1.2-1.6,1.5-.6.3-1.6.5-2.7.5h-3ZM279.6,304.1h1.1c1.3,0,2.2,0,2.7-.2.7-.2,1.3-.6,1.7-1.2.4-.6.6-1.3.6-2.1s-.2-1.6-.7-2.3-1-1.1-1.8-1.3c-.6-.2-1.5-.3-2.9-.3h-.7v7.4ZM289.4,295.8h5.4v.9h-4.4v2.9h4.4v.9h-4.4v3.6h4.4v.9h-5.3v-9.1ZM310.9,297.5l-.7.6c-.4-.5-.9-.9-1.5-1.2-.6-.3-1.2-.4-1.9-.4s-1.4.2-2.1.5-1.1.8-1.5,1.4-.5,1.3-.5,2c0,1.1.4,2,1.2,2.8s1.8,1.1,3,1.1,2.4-.5,3.3-1.5l.7.5c-.5.6-1,1-1.7,1.3-.7.3-1.5.5-2.3.5-1.6,0-2.9-.5-3.9-1.6-.8-.9-1.2-2-1.2-3.2s.5-2.5,1.4-3.4c1-.9,2.2-1.4,3.6-1.4s1.7.2,2.4.5c.7.3,1.3.8,1.7,1.4ZM317.6,295.8l4.4,9.1h-1l-1.5-3h-4l-1.5,3h-1l4.4-9.1h.2ZM317.5,297.8l-1.6,3.3h3.2l-1.6-3.3ZM324.5,295.8h1.9c1.1,0,1.8,0,2.2.1.5.1,1,.4,1.3.8.3.4.5.9.5,1.5s-.2,1.1-.5,1.5c-.3.4-.8.7-1.4.8-.4,0-1.2.1-2.4.1h-.7v4.2h-.9v-9.1ZM325.5,296.7v3.1h1.6c.6,0,1.1,0,1.4-.2.3-.1.5-.3.7-.6.2-.3.3-.5.3-.9s0-.6-.3-.8c-.2-.3-.4-.4-.7-.5-.3-.1-.7-.2-1.4-.2h-1.7ZM337.1,295.8l4.4,9.1h-1l-1.5-3h-4l-1.5,3h-1l4.4-9.1h.2ZM337,297.8l-1.6,3.3h3.2l-1.6-3.3ZM352.7,297.5l-.7.6c-.4-.5-.9-.9-1.5-1.2-.6-.3-1.2-.4-1.9-.4s-1.4.2-2.1.5-1.1.8-1.5,1.4-.5,1.3-.5,2c0,1.1.4,2,1.2,2.8s1.8,1.1,3,1.1,2.4-.5,3.3-1.5l.7.5c-.5.6-1,1-1.7,1.3-.7.3-1.5.5-2.3.5-1.6,0-2.9-.5-3.9-1.6-.8-.9-1.2-2-1.2-3.2s.5-2.5,1.4-3.4c1-.9,2.2-1.4,3.6-1.4s1.7.2,2.4.5c.7.3,1.3.8,1.7,1.4ZM355.5,295.8h.9v9.1h-.9v-9.1ZM358.8,296.7v-.9h5.1v.9h-2.1v8.2h-1v-8.2h-2.1ZM370.1,295.8l4.4,9.1h-1l-1.5-3h-4l-1.5,3h-1l4.4-9.1h.2ZM370,297.8l-1.6,3.3h3.2l-1.6-3.3ZM385.7,297.5l-.7.6c-.4-.5-.9-.9-1.5-1.2-.6-.3-1.2-.4-1.9-.4s-1.4.2-2.1.5-1.1.8-1.5,1.4-.5,1.3-.5,2c0,1.1.4,2,1.2,2.8s1.8,1.1,3,1.1,2.4-.5,3.3-1.5l.7.5c-.5.6-1,1-1.7,1.3-.7.3-1.5.5-2.3.5-1.6,0-2.9-.5-3.9-1.6-.8-.9-1.2-2-1.2-3.2s.5-2.5,1.4-3.4c1-.9,2.2-1.4,3.6-1.4s1.7.2,2.4.5c.7.3,1.3.8,1.7,1.4ZM388.5,295.8h.9v9.1h-.9v-9.1ZM397.1,295.6c1.4,0,2.6.5,3.6,1.4,1,.9,1.4,2.1,1.4,3.4s-.5,2.5-1.4,3.4c-1,.9-2.1,1.4-3.5,1.4s-2.6-.5-3.5-1.4c-1-.9-1.4-2-1.4-3.4s.2-1.7.7-2.4,1-1.3,1.8-1.8c.8-.4,1.6-.6,2.4-.6ZM397.2,296.5c-.7,0-1.3.2-2,.5-.6.4-1.1.8-1.5,1.4-.3.6-.5,1.3-.5,2,0,1.1.4,2,1.2,2.7.8.7,1.7,1.1,2.8,1.1s1.4-.2,2-.5,1.1-.8,1.4-1.4c.3-.6.5-1.3.5-2s-.2-1.4-.5-2-.8-1.1-1.5-1.4c-.6-.4-1.3-.5-2-.5ZM397.6,293.2h1.4l-1.9,1.9h-.9l1.4-1.9ZM405.1,304.9v-9.1h.2l6.2,7v-7h.9v9.1h-.2l-6.2-6.9v6.9h-1ZM420.5,295.8h5.4v.9h-4.4v2.9h4.4v.9h-4.4v3.6h4.4v.9h-5.3v-9.1ZM428.5,304.9v-9.1h.2l6.2,7v-7h.9v9.1h-.2l-6.2-6.9v6.9h-1ZM452.6,297.5l-.7.6c-.4-.5-.9-.9-1.5-1.2-.6-.3-1.2-.4-1.9-.4s-1.4.2-2.1.5-1.1.8-1.5,1.4-.5,1.3-.5,2c0,1.1.4,2,1.2,2.8s1.8,1.1,3,1.1,2.4-.5,3.3-1.5l.7.5c-.5.6-1,1-1.7,1.3-.7.3-1.5.5-2.3.5-1.6,0-2.9-.5-3.9-1.6-.8-.9-1.2-2-1.2-3.2s.5-2.5,1.4-3.4c1-.9,2.2-1.4,3.6-1.4s1.7.2,2.4.5c.7.3,1.3.8,1.7,1.4ZM455.6,295.8h.9v5.5c0,.7,0,1.1,0,1.2,0,.4.2.7.3.9.2.2.4.4.8.6s.7.2,1.1.2.6,0,.9-.2c.3-.1.5-.3.7-.5.2-.2.3-.5.4-.8,0-.2,0-.7,0-1.4v-5.5h.9v5.5c0,.8,0,1.5-.2,2-.2.5-.5.9-1,1.3-.5.4-1.1.6-1.8.6s-1.4-.2-1.9-.5-.9-.8-1.1-1.4c-.1-.4-.2-1-.2-1.9v-5.5ZM465.1,295.8h.9v8.2h3.6v.9h-4.5v-9.1ZM471.3,296.7v-.9h5.1v.9h-2.1v8.2h-1v-8.2h-2.1ZM478.9,295.8h.9v5.5c0,.7,0,1.1,0,1.2,0,.4.2.7.3.9.2.2.4.4.8.6s.7.2,1.1.2.6,0,.9-.2c.3-.1.5-.3.7-.5.2-.2.3-.5.4-.8,0-.2,0-.7,0-1.4v-5.5h.9v5.5c0,.8,0,1.5-.2,2-.2.5-.5.9-1,1.3-.5.4-1.1.6-1.8.6s-1.4-.2-1.9-.5-.9-.8-1.1-1.4c-.1-.4-.2-1-.2-1.9v-5.5ZM488.5,295.8h1.9c1,0,1.7,0,2.1.1.6.1,1,.4,1.4.8.3.4.5.9.5,1.5s-.1.9-.4,1.3c-.2.4-.6.7-1,.9-.4.2-1.1.3-1.8.3l3.4,4.2h-1.2l-3.4-4.2h-.5v4.2h-.9v-9.1ZM489.4,296.7v3.1h1.6c.6,0,1.1,0,1.4-.2.3-.1.5-.3.7-.6s.3-.5.3-.9,0-.6-.3-.8-.4-.4-.7-.5c-.3-.1-.7-.2-1.4-.2h-1.6ZM501.2,295.8l4.4,9.1h-1l-1.5-3h-4l-1.5,3h-1l4.4-9.1h.2ZM501.1,297.8l-1.6,3.3h3.2l-1.6-3.3ZM512.8,304.9v-9.1h1.9c1.4,0,2.4.1,3,.3.9.3,1.6.8,2.1,1.6.5.8.8,1.7.8,2.7s-.2,1.7-.6,2.4c-.4.7-.9,1.2-1.6,1.5-.6.3-1.6.5-2.7.5h-3ZM513.7,304.1h1.1c1.3,0,2.2,0,2.7-.2.7-.2,1.3-.6,1.7-1.2.4-.6.6-1.3.6-2.1s-.2-1.6-.7-2.3-1-1.1-1.8-1.3c-.6-.2-1.5-.3-2.9-.3h-.7v7.4ZM523.6,295.8h5.4v.9h-4.4v2.9h4.4v.9h-4.4v3.6h4.4v.9h-5.3v-9.1ZM536.3,295.8h1.8c.7,0,1.3,0,1.7.3.4.2.7.4.9.8.2.4.3.8.3,1.2s-.1.8-.3,1.1c-.2.3-.5.6-.9.8.5.2.9.4,1.1.6.3.2.5.5.6.8.1.3.2.6.2,1,0,.7-.3,1.4-.8,1.9-.5.5-1.3.8-2.2.8h-2.6v-9.1ZM537.2,296.7v2.9h.5c.7,0,1.1,0,1.4-.2.3-.1.5-.3.7-.6.2-.3.3-.5.3-.8s-.1-.7-.4-1-.8-.4-1.4-.4h-1.1ZM537.2,300.6v3.5h1.2c.7,0,1.2,0,1.5-.2.3-.1.6-.3.8-.6.2-.3.3-.6.3-.9s-.1-.8-.4-1.1c-.3-.3-.6-.5-1.1-.6-.3,0-.9-.1-1.7-.1h-.5ZM544.8,295.8h5.4v.9h-4.4v2.9h4.4v.9h-4.4v3.6h4.4v.9h-5.3v-9.1ZM552.9,295.8h.9v8.2h3.6v.9h-4.5v-9.1ZM560,295.8h.9v8.2h3.6v.9h-4.5v-9.1ZM567.1,295.8h5.4v.9h-4.4v2.9h4.4v.9h-4.4v3.6h4.4v.9h-5.3v-9.1ZM574.7,296.7v-.9h4.9l-3.9,8.2h3.7v.9h-5.2l3.9-8.2h-3.5ZM586.2,295.8l4.4,9.1h-1l-1.5-3h-4l-1.5,3h-1l4.4-9.1h.2ZM586.1,297.8l-1.6,3.3h3.2l-1.6-3.3Z"/>
</svg>